<svg width="49" height="49" viewBox="0 0 49 49" fill="none" xmlns="http://www.w3.org/2000/svg">
<path d="M38.57 4.08334H10.4302C9.86348 4.08469 9.30255 4.19765 8.77947 4.41579C8.25639 4.63393 7.7814 4.95296 7.38162 5.35467C6.98185 5.75639 6.66511 6.23291 6.4495 6.75703C6.23389 7.28116 6.12363 7.84262 6.12501 8.40936V36.8013C6.12361 37.368 6.23386 37.9295 6.44945 38.4536C6.66505 38.9777 6.98177 39.4543 7.38154 39.856C7.7813 40.2577 8.25628 40.5767 8.77935 40.7949C9.30242 41.013 9.86334 41.126 10.4301 41.1273H34.2441L33.131 37.2423L35.819 39.7413L38.3599 42.0933L42.875 46.0833V8.40936C42.8764 7.84263 42.7662 7.28117 42.5506 6.75705C42.335 6.23293 42.0183 5.7564 41.6185 5.35469C41.2187 4.95297 40.7437 4.63394 40.2207 4.4158C39.6976 4.19766 39.1367 4.08469 38.57 4.08334ZM30.464 31.5095C30.464 31.5095 29.708 30.6064 29.078 29.8083C30.6002 29.4499 31.9466 28.5647 32.879 27.3093C32.1234 27.8123 31.3132 28.2279 30.464 28.5482C29.4871 28.9653 28.4654 29.2683 27.419 29.4513C25.6205 29.7825 23.776 29.7754 21.98 29.4304C20.9257 29.224 19.8924 28.9217 18.893 28.5274C18.3662 28.3248 17.854 28.0862 17.3599 27.8134C17.297 27.7713 17.234 27.7503 17.171 27.7083C17.1394 27.6926 17.1109 27.6713 17.087 27.6454C16.709 27.4354 16.499 27.2884 16.499 27.2884C17.3977 28.5175 18.6976 29.3939 20.174 29.7663C19.5441 30.5644 18.767 31.5093 18.767 31.5093C17.5196 31.5429 16.283 31.2694 15.1661 30.7128C14.0493 30.1562 13.0863 29.3336 12.362 28.3174C12.4302 24.0601 13.4642 19.8738 15.386 16.0743C17.0772 14.746 19.1391 13.9756 21.287 13.8693L21.497 14.1214C19.4762 14.6214 17.5905 15.5606 15.974 16.8723C15.974 16.8723 16.436 16.6204 17.2129 16.2634C18.7224 15.5743 20.3313 15.1278 21.98 14.9404C22.0976 14.916 22.2171 14.9019 22.3371 14.8983C23.7443 14.715 25.1685 14.7009 26.5791 14.8564C28.7974 15.1097 30.9447 15.7946 32.9 16.8723C31.3654 15.6232 29.5831 14.7142 27.671 14.2054L27.965 13.8695C30.1129 13.9756 32.1748 14.7461 33.866 16.0745C35.7879 19.8739 36.8219 24.0601 36.8901 28.3174C36.1599 29.3326 35.1928 30.154 34.0729 30.7103C32.953 31.2666 31.7141 31.5409 30.464 31.5093V31.5095ZM20.699 21.7024C20.1289 21.7024 19.5821 21.9289 19.179 22.332C18.7759 22.7351 18.5495 23.2819 18.5495 23.852C18.5495 24.4221 18.776 24.9688 19.1791 25.3719C19.5822 25.775 20.129 26.0015 20.6991 26.0015C21.2691 26.0015 21.8159 25.775 22.219 25.3719C22.6221 24.9688 22.8486 24.4221 22.8486 23.852C22.8486 23.2819 22.6222 22.7351 22.2191 22.332C21.816 21.9289 21.2692 21.7024 20.6991 21.7024H20.699ZM28.3641 21.7024C27.8947 21.6626 27.4242 21.7655 27.0142 21.9976C26.6042 22.2296 26.2739 22.5801 26.0664 23.003C25.8589 23.426 25.7839 23.9017 25.8513 24.368C25.9187 24.8342 26.1253 25.2693 26.444 25.6161C26.7628 25.963 27.1789 26.2056 27.6378 26.3121C28.0967 26.4186 28.577 26.3841 29.016 26.213C29.4549 26.042 29.832 25.7424 30.0978 25.3534C30.3637 24.9645 30.5059 24.5044 30.5059 24.0333C30.5185 23.7396 30.473 23.4463 30.3721 23.1701C30.2713 22.894 30.117 22.6404 29.918 22.4239C29.7191 22.2075 29.4795 22.0323 29.2129 21.9085C28.9462 21.7847 28.6578 21.7147 28.3641 21.7024Z" fill="white"/>
</svg>
