<svg width="49" height="49" viewBox="0 0 49 49" fill="none" xmlns="http://www.w3.org/2000/svg">
<path d="M24.5002 38.7917C24.904 38.7917 25.2987 38.6719 25.6345 38.4476C25.9702 38.2233 26.2319 37.9044 26.3864 37.5313C26.5409 37.1583 26.5814 36.7477 26.5026 36.3517C26.4238 35.9557 26.2294 35.5919 25.9438 35.3063C25.6583 35.0208 25.2945 34.8264 24.8985 34.7476C24.5024 34.6688 24.0919 34.7092 23.7189 34.8638C23.3458 35.0183 23.0269 35.28 22.8026 35.6157C22.5782 35.9515 22.4585 36.3462 22.4585 36.75C22.4585 37.2915 22.6736 37.8108 23.0565 38.1937C23.4394 38.5766 23.9587 38.7917 24.5002 38.7917ZM34.7085 38.7917C35.1123 38.7917 35.507 38.6719 35.8428 38.4476C36.1785 38.2233 36.4402 37.9044 36.5948 37.5313C36.7493 37.1583 36.7897 36.7477 36.7109 36.3517C36.6322 35.9557 36.4377 35.5919 36.1522 35.3063C35.8666 35.0208 35.5029 34.8264 35.1068 34.7476C34.7108 34.6688 34.3003 34.7092 33.9272 34.8638C33.5541 35.0183 33.2353 35.28 33.0109 35.6157C32.7866 35.9515 32.6668 36.3462 32.6668 36.75C32.6668 37.2915 32.8819 37.8108 33.2648 38.1937C33.6477 38.5766 34.167 38.7917 34.7085 38.7917ZM34.7085 30.625C35.1123 30.625 35.507 30.5053 35.8428 30.2809C36.1785 30.0566 36.4402 29.7377 36.5948 29.3647C36.7493 28.9916 36.7897 28.5811 36.7109 28.185C36.6322 27.789 36.4377 27.4252 36.1522 27.1397C35.8666 26.8541 35.5029 26.6597 35.1068 26.5809C34.7108 26.5021 34.3003 26.5426 33.9272 26.6971C33.5541 26.8516 33.2353 27.1133 33.0109 27.4491C32.7866 27.7848 32.6668 28.1795 32.6668 28.5834C32.6668 29.1248 32.8819 29.6441 33.2648 30.027C33.6477 30.4099 34.167 30.625 34.7085 30.625ZM24.5002 30.625C24.904 30.625 25.2987 30.5053 25.6345 30.2809C25.9702 30.0566 26.2319 29.7377 26.3864 29.3647C26.5409 28.9916 26.5814 28.5811 26.5026 28.185C26.4238 27.789 26.2294 27.4252 25.9438 27.1397C25.6583 26.8541 25.2945 26.6597 24.8985 26.5809C24.5024 26.5021 24.0919 26.5426 23.7189 26.6971C23.3458 26.8516 23.0269 27.1133 22.8026 27.4491C22.5782 27.7848 22.4585 28.1795 22.4585 28.5834C22.4585 29.1248 22.6736 29.6441 23.0565 30.027C23.4394 30.4099 23.9587 30.625 24.5002 30.625ZM38.7918 6.12502H36.7502V4.08335C36.7502 3.54187 36.5351 3.02256 36.1522 2.63968C35.7693 2.25679 35.25 2.04169 34.7085 2.04169C34.167 2.04169 33.6477 2.25679 33.2648 2.63968C32.8819 3.02256 32.6668 3.54187 32.6668 4.08335V6.12502H16.3335V4.08335C16.3335 3.54187 16.1184 3.02256 15.7355 2.63968C15.3526 2.25679 14.8333 2.04169 14.2918 2.04169C13.7503 2.04169 13.231 2.25679 12.8482 2.63968C12.4653 3.02256 12.2502 3.54187 12.2502 4.08335V6.12502H10.2085C8.58405 6.12502 7.02613 6.77033 5.87747 7.91899C4.72881 9.06765 4.0835 10.6256 4.0835 12.25V40.8334C4.0835 42.4578 4.72881 44.0157 5.87747 45.1644C7.02613 46.313 8.58405 46.9584 10.2085 46.9584H38.7918C40.4163 46.9584 41.9742 46.313 43.1229 45.1644C44.2715 44.0157 44.9168 42.4578 44.9168 40.8334V12.25C44.9168 10.6256 44.2715 9.06765 43.1229 7.91899C41.9742 6.77033 40.4163 6.12502 38.7918 6.12502ZM40.8335 40.8334C40.8335 41.3748 40.6184 41.8941 40.2355 42.277C39.8526 42.6599 39.3333 42.875 38.7918 42.875H10.2085C9.66701 42.875 9.14771 42.6599 8.76482 42.277C8.38193 41.8941 8.16683 41.3748 8.16683 40.8334V22.4584H40.8335V40.8334ZM40.8335 18.375H8.16683V12.25C8.16683 11.7085 8.38193 11.1892 8.76482 10.8063C9.14771 10.4235 9.66701 10.2084 10.2085 10.2084H12.2502V12.25C12.2502 12.7915 12.4653 13.3108 12.8482 13.6937C13.231 14.0766 13.7503 14.2917 14.2918 14.2917C14.8333 14.2917 15.3526 14.0766 15.7355 13.6937C16.1184 13.3108 16.3335 12.7915 16.3335 12.25V10.2084H32.6668V12.25C32.6668 12.7915 32.8819 13.3108 33.2648 13.6937C33.6477 14.0766 34.167 14.2917 34.7085 14.2917C35.25 14.2917 35.7693 14.0766 36.1522 13.6937C36.5351 13.3108 36.7502 12.7915 36.7502 12.25V10.2084H38.7918C39.3333 10.2084 39.8526 10.4235 40.2355 10.8063C40.6184 11.1892 40.8335 11.7085 40.8335 12.25V18.375ZM14.2918 30.625C14.6956 30.625 15.0904 30.5053 15.4261 30.2809C15.7619 30.0566 16.0236 29.7377 16.1781 29.3647C16.3326 28.9916 16.373 28.5811 16.2943 28.185C16.2155 27.789 16.021 27.4252 15.7355 27.1397C15.45 26.8541 15.0862 26.6597 14.6901 26.5809C14.2941 26.5021 13.8836 26.5426 13.5105 26.6971C13.1375 26.8516 12.8186 27.1133 12.5942 27.4491C12.3699 27.7848 12.2502 28.1795 12.2502 28.5834C12.2502 29.1248 12.4653 29.6441 12.8482 30.027C13.231 30.4099 13.7503 30.625 14.2918 30.625ZM14.2918 38.7917C14.6956 38.7917 15.0904 38.6719 15.4261 38.4476C15.7619 38.2233 16.0236 37.9044 16.1781 37.5313C16.3326 37.1583 16.373 36.7477 16.2943 36.3517C16.2155 35.9557 16.021 35.5919 15.7355 35.3063C15.45 35.0208 15.0862 34.8264 14.6901 34.7476C14.2941 34.6688 13.8836 34.7092 13.5105 34.8638C13.1375 35.0183 12.8186 35.28 12.5942 35.6157C12.3699 35.9515 12.2502 36.3462 12.2502 36.75C12.2502 37.2915 12.4653 37.8108 12.8482 38.1937C13.231 38.5766 13.7503 38.7917 14.2918 38.7917Z" fill="white"/>
</svg>
