<svg width="49" height="52" viewBox="0 0 49 52" fill="none" xmlns="http://www.w3.org/2000/svg">
<path d="M23.0503 31.7633C22.6731 32.1669 22.4604 32.7116 22.4582 33.28C22.4587 33.5704 22.5143 33.8578 22.6215 34.125C22.8058 34.5841 23.1338 34.9617 23.5501 35.1938C23.9664 35.426 24.4454 35.4985 24.9063 35.3992C25.3671 35.2998 25.7815 35.0347 26.0795 34.6486C26.3774 34.2625 26.5406 33.7791 26.5415 33.28C26.5393 32.7116 26.3266 32.1669 25.9494 31.7633C25.7596 31.5603 25.5338 31.3991 25.285 31.2891C25.0362 31.1791 24.7694 31.1224 24.4998 31.1224C24.2303 31.1224 23.9635 31.1791 23.7147 31.2891C23.4659 31.3991 23.2401 31.5603 23.0503 31.7633ZM40.0778 7.93C39.8406 7.72638 39.5634 7.58176 39.2666 7.50677C38.9698 7.43178 38.661 7.42833 38.3628 7.49667C36.1811 7.98188 33.929 7.98806 31.745 7.51483C29.561 7.04161 27.4914 6.09898 25.6636 4.745C25.3218 4.49339 24.9158 4.35857 24.4998 4.35857C24.0839 4.35857 23.6779 4.49339 23.3361 4.745C21.5068 6.09527 19.4365 7.03403 17.2525 7.50352C15.0686 7.97302 12.8172 7.96331 10.6369 7.475C10.3387 7.40666 10.0299 7.41012 9.73309 7.48511C9.4363 7.5601 9.15912 7.70472 8.92193 7.90834C8.68506 8.11226 8.49425 8.36992 8.36352 8.66237C8.2328 8.95483 8.16548 9.27465 8.16652 9.59834V25.74C8.1647 28.8465 8.86226 31.9084 10.2011 34.6709C11.54 37.4334 13.4813 39.8165 15.8636 41.6217L23.3157 47.255C23.6615 47.5163 24.0754 47.6567 24.4998 47.6567C24.9243 47.6567 25.3382 47.5163 25.684 47.255L33.1361 41.6217C35.5184 39.8165 37.4597 37.4334 38.7986 34.6709C40.1374 31.9084 40.835 28.8465 40.8332 25.74V9.59834C40.8342 9.27465 40.7669 8.95483 40.6362 8.66237C40.5054 8.36992 40.3146 8.11226 40.0778 7.90834V7.93ZM36.7498 25.74C36.7514 28.1553 36.2094 30.5361 35.1689 32.6842C34.1284 34.8323 32.6195 36.6857 30.7678 38.09L24.4998 42.835L18.2319 38.09C16.3802 36.6857 14.8713 34.8323 13.8308 32.6842C12.7903 30.5361 12.2483 28.1553 12.2498 25.74V12.09C16.5301 12.4788 20.8168 11.4249 24.4998 9.07834C28.1829 11.4249 32.4696 12.4788 36.7498 12.09V25.74ZM24.4998 15.9467C23.424 15.9459 22.367 16.2459 21.4351 16.8165C20.5033 17.387 19.7294 18.2079 19.1915 19.1967C18.9474 19.6918 18.8931 20.2679 19.0398 20.8047C19.1865 21.3414 19.523 21.7971 19.9789 22.0768C20.4348 22.3565 20.9749 22.4384 21.4863 22.3054C21.9978 22.1725 22.4411 21.8349 22.7236 21.3633C22.9026 21.0343 23.16 20.761 23.47 20.5708C23.78 20.3807 24.1317 20.2804 24.4897 20.28C24.8477 20.2796 25.1996 20.3792 25.5099 20.5687C25.8203 20.7582 26.0782 21.031 26.2578 21.3596C26.4375 21.6883 26.5325 22.0613 26.5334 22.4413C26.5343 22.8213 26.441 23.1948 26.2629 23.5244C26.0848 23.854 25.8282 24.1282 25.5187 24.3193C25.2093 24.5104 24.8579 24.6118 24.4998 24.6133C23.9584 24.6133 23.4391 24.8416 23.0562 25.2479C22.6733 25.6543 22.4582 26.2054 22.4582 26.78C22.4582 27.3546 22.6733 27.9057 23.0562 28.3121C23.4391 28.7184 23.9584 28.9467 24.4998 28.9467C26.1243 28.9467 27.6822 28.2619 28.8309 27.0429C29.9795 25.8239 30.6248 24.1706 30.6248 22.4467C30.6248 20.7228 29.9795 19.0695 28.8309 17.8505C27.6822 16.6315 26.1243 15.9467 24.4998 15.9467Z" fill="white"/>
</svg>
