<svg width="49" height="49" viewBox="0 0 49 49" fill="none" xmlns="http://www.w3.org/2000/svg">
<path d="M40.8335 16.3333L28.5835 5.59418C27.4606 4.58977 26.0068 4.03448 24.5002 4.03448C22.9936 4.03448 21.5398 4.58977 20.4169 5.59418L8.16686 16.3333C7.51836 16.9133 7.00086 17.6248 6.64882 18.4204C6.29678 19.216 6.11828 20.0775 6.12519 20.9475V38.7917C6.12519 40.4161 6.7705 41.974 7.91916 43.1227C9.06783 44.2714 10.6257 44.9167 12.2502 44.9167H36.7502C38.3746 44.9167 39.9326 44.2714 41.0812 43.1227C42.2299 41.974 42.8752 40.4161 42.8752 38.7917V20.9271C42.8792 20.0605 42.6993 19.203 42.3474 18.4111C41.9954 17.6192 41.4794 16.911 40.8335 16.3333ZM28.5835 40.8333H20.4169V30.625C20.4169 30.0835 20.632 29.5642 21.0149 29.1813C21.3977 28.7984 21.917 28.5833 22.4585 28.5833H26.5419C27.0833 28.5833 27.6026 28.7984 27.9855 29.1813C28.3684 29.5642 28.5835 30.0835 28.5835 30.625V40.8333ZM38.7919 38.7917C38.7919 39.3332 38.5768 39.8525 38.1939 40.2354C37.811 40.6182 37.2917 40.8333 36.7502 40.8333H32.6669V30.625C32.6669 29.0006 32.0216 27.4426 30.8729 26.294C29.7242 25.1453 28.1663 24.5 26.5419 24.5H22.4585C20.8341 24.5 19.2762 25.1453 18.1275 26.294C16.9788 27.4426 16.3335 29.0006 16.3335 30.625V40.8333H12.2502C11.7087 40.8333 11.1894 40.6182 10.8065 40.2354C10.4236 39.8525 10.2085 39.3332 10.2085 38.7917V20.9271C10.2089 20.6372 10.271 20.3507 10.3907 20.0867C10.5104 19.8227 10.6849 19.5872 10.9027 19.3958L23.1527 8.6771C23.5253 8.34978 24.0043 8.16926 24.5002 8.16926C24.9961 8.16926 25.4751 8.34978 25.8477 8.6771L38.0977 19.3958C38.3155 19.5872 38.49 19.8227 38.6097 20.0867C38.7294 20.3507 38.7915 20.6372 38.7919 20.9271V38.7917Z" fill="white"/>
</svg>
