<svg width="49" height="49" viewBox="0 0 49 49" fill="none" xmlns="http://www.w3.org/2000/svg">
<path d="M46.1415 4.2875C45.9373 3.675 45.3248 3.0625 44.7123 2.85834C36.1373 0.612503 27.3581 3.26667 21.4373 10.2083L19.1915 12.8625L13.679 11.6375C11.0248 10.6167 8.16647 11.8417 6.94147 14.2917L2.4498 22.2542C2.04147 22.8667 2.04147 23.4792 2.4498 24.0917C2.65397 24.7042 3.26647 25.1125 3.87897 25.3167L10.2081 26.7458C9.59564 28.3792 9.39147 30.0125 8.98314 31.6458C8.98314 32.2583 9.1873 32.8708 9.59564 33.2792L15.9248 39.6083C16.3331 40.0167 16.7415 40.2208 17.354 40.2208H17.5581C19.3956 40.0167 21.029 39.8125 22.6623 39.2L23.8873 45.325C24.0915 45.9375 24.4998 46.55 25.1123 46.7542C25.3165 46.9583 25.7248 46.9583 25.929 46.9583C26.3373 46.9583 26.5415 46.9583 26.9498 46.7542L34.9123 42.2625C37.1581 41.0375 38.3831 38.1792 37.7706 35.525L36.3415 29.8083L38.7915 27.5625C45.529 21.8458 48.3873 12.6583 46.1415 4.2875ZM14.904 17.9667C13.679 19.6 12.454 21.2333 11.6373 22.8667L7.3498 21.8458L10.4123 16.3333C10.8206 15.5167 11.6373 15.3125 12.6581 15.5167L16.129 16.3333L14.904 17.9667ZM32.6665 38.5875L27.154 41.65L26.3373 37.5667C28.1748 36.75 29.8081 35.525 31.2373 34.3L32.6665 32.8708L33.4831 36.3417C33.8915 37.3625 33.279 38.3833 32.6665 38.5875ZM34.0956 17.9667C32.4623 17.9667 31.0331 16.5375 31.0331 14.9042C31.0331 13.2708 32.4623 11.8417 34.0956 11.8417C35.729 11.8417 37.1581 13.2708 37.1581 14.9042C37.1581 16.5375 35.9331 17.9667 34.0956 17.9667Z" fill="white"/>
</svg>
