<svg width="49" height="49" viewBox="0 0 49 49" fill="none" xmlns="http://www.w3.org/2000/svg">
<path d="M42.8752 8.16668H36.7502V6.12501C36.7502 5.58353 36.5351 5.06422 36.1522 4.68133C35.7693 4.29845 35.25 4.08334 34.7085 4.08334H14.2918C13.7503 4.08334 13.231 4.29845 12.8482 4.68133C12.4653 5.06422 12.2502 5.58353 12.2502 6.12501V8.16668H6.12516C5.58368 8.16668 5.06437 8.38178 4.68149 8.76467C4.2986 9.14755 4.0835 9.66686 4.0835 10.2083V16.3333C4.0835 18.4993 4.94391 20.5765 6.47546 22.108C8.007 23.6396 10.0842 24.5 12.2502 24.5H15.3943C17.2411 26.5603 19.731 27.9348 22.4585 28.3996V32.6667H20.4168C18.7924 32.6667 17.2345 33.312 16.0858 34.4606C14.9371 35.6093 14.2918 37.1672 14.2918 38.7917V42.875C14.2918 43.4165 14.5069 43.9358 14.8898 44.3187C15.2727 44.7016 15.792 44.9167 16.3335 44.9167H32.6668C33.2083 44.9167 33.7276 44.7016 34.1105 44.3187C34.4934 43.9358 34.7085 43.4165 34.7085 42.875V38.7917C34.7085 37.1672 34.0632 35.6093 32.9145 34.4606C31.7659 33.312 30.2079 32.6667 28.5835 32.6667H26.5418V28.3996C29.2694 27.9348 31.7592 26.5603 33.606 24.5H36.7502C38.9161 24.5 40.9933 23.6396 42.5249 22.108C44.0564 20.5765 44.9168 18.4993 44.9168 16.3333V10.2083C44.9168 9.66686 44.7017 9.14755 44.3188 8.76467C43.936 8.38178 43.4166 8.16668 42.8752 8.16668ZM12.2502 20.4167C11.1672 20.4167 10.1286 19.9865 9.36281 19.2207C8.59704 18.4549 8.16683 17.4163 8.16683 16.3333V12.25H12.2502V16.3333C12.2547 17.7252 12.4963 19.106 12.9647 20.4167H12.2502ZM28.5835 36.75C29.125 36.75 29.6443 36.9651 30.0272 37.348C30.4101 37.7309 30.6252 38.2502 30.6252 38.7917V40.8333H18.3752V38.7917C18.3752 38.2502 18.5903 37.7309 18.9732 37.348C19.356 36.9651 19.8753 36.75 20.4168 36.75H28.5835ZM32.6668 16.3333C32.6668 18.4993 31.8064 20.5765 30.2749 22.108C28.7433 23.6396 26.6661 24.5 24.5002 24.5C22.3342 24.5 20.257 23.6396 18.7255 22.108C17.1939 20.5765 16.3335 18.4993 16.3335 16.3333V8.16668H32.6668V16.3333ZM40.8335 16.3333C40.8335 17.4163 40.4033 18.4549 39.6375 19.2207C38.8717 19.9865 37.8331 20.4167 36.7502 20.4167H36.0356C36.504 19.106 36.7457 17.7252 36.7502 16.3333V12.25H40.8335V16.3333Z" fill="white"/>
</svg>
