<svg width="71" height="71" viewBox="0 0 71 71" fill="none" xmlns="http://www.w3.org/2000/svg">
<path d="M53.2499 38.9909V29.5834C53.2457 25.3918 51.7582 21.3369 49.0509 18.1369C46.3436 14.9369 42.5912 12.7982 38.4582 12.0996V8.87502C38.4582 8.09042 38.1466 7.33796 37.5918 6.78316C37.037 6.22837 36.2845 5.91669 35.4999 5.91669C34.7153 5.91669 33.9629 6.22837 33.4081 6.78316C32.8533 7.33796 32.5416 8.09042 32.5416 8.87502V12.0996C28.4086 12.7982 24.6562 14.9369 21.9489 18.1369C19.2416 21.3369 17.7542 25.3918 17.7499 29.5834V38.9909C16.0236 39.6012 14.5283 40.7306 13.469 42.2241C12.4098 43.7177 11.8384 45.5023 11.8333 47.3334V53.25C11.8333 54.0346 12.1449 54.7871 12.6997 55.3419C13.2545 55.8967 14.007 56.2084 14.7916 56.2084H24.0808C24.762 58.7152 26.2492 60.9281 28.3129 62.5059C30.3766 64.0836 32.9022 64.9384 35.4999 64.9384C38.0976 64.9384 40.6232 64.0836 42.6869 62.5059C44.7506 60.9281 46.2378 58.7152 46.9191 56.2084H56.2082C56.9928 56.2084 57.7453 55.8967 58.3001 55.3419C58.8549 54.7871 59.1666 54.0346 59.1666 53.25V47.3334C59.1614 45.5023 58.5901 43.7177 57.5308 42.2241C56.4715 40.7306 54.9762 39.6012 53.2499 38.9909ZM23.6666 29.5834C23.6666 26.445 24.9133 23.4351 27.1325 21.2159C29.3517 18.9967 32.3615 17.75 35.4999 17.75C38.6383 17.75 41.6482 18.9967 43.8673 21.2159C46.0865 23.4351 47.3332 26.445 47.3332 29.5834V38.4584H23.6666V29.5834ZM35.4999 59.1667C34.4674 59.1605 33.4544 58.8841 32.5618 58.3651C31.6691 57.8461 30.9278 57.1026 30.4116 56.2084H40.5882C40.072 57.1026 39.3307 57.8461 38.438 58.3651C37.5454 58.8841 36.5325 59.1605 35.4999 59.1667ZM53.2499 50.2917H17.7499V47.3334C17.7499 46.5488 18.0616 45.7963 18.6164 45.2415C19.1712 44.6867 19.9237 44.375 20.7083 44.375H50.2916C51.0762 44.375 51.8286 44.6867 52.3834 45.2415C52.9382 45.7963 53.2499 46.5488 53.2499 47.3334V50.2917Z" fill="white"/>
</svg>
