<svg width="114" height="114" viewBox="0 0 114 114" fill="none" xmlns="http://www.w3.org/2000/svg">
<path d="M57.0001 9.5C47.7874 9.5175 38.7786 12.2137 31.0709 17.2603C23.3633 22.3068 17.2896 29.4858 13.5896 37.9229C9.88955 46.36 8.7229 55.691 10.2317 64.7793C11.7406 73.8677 15.8598 82.3211 22.0876 89.11C26.5356 93.9315 31.9341 97.7794 37.9428 100.411C43.9515 103.043 50.4403 104.402 57.0001 104.402C63.5599 104.402 70.0487 103.043 76.0574 100.411C82.0661 97.7794 87.4646 93.9315 91.9126 89.11C98.1404 82.3211 102.26 73.8677 103.768 64.7793C105.277 55.691 104.111 46.36 100.411 37.9229C96.7106 29.4858 90.6369 22.3068 82.9293 17.2603C75.2217 12.2137 66.2128 9.5175 57.0001 9.5ZM57.0001 95C47.1603 94.985 37.71 91.1538 30.6376 84.3125C32.7848 79.0853 36.4375 74.6144 41.1316 71.468C45.8256 68.3215 51.3491 66.6416 57.0001 66.6416C62.6511 66.6416 68.1746 68.3215 72.8687 71.468C77.5627 74.6144 81.2154 79.0853 83.3626 84.3125C76.2903 91.1538 66.8399 94.985 57.0001 95ZM47.5001 47.5C47.5001 45.6211 48.0573 43.7844 49.1011 42.2221C50.145 40.6598 51.6287 39.4422 53.3646 38.7231C55.1005 38.0041 57.0106 37.816 58.8535 38.1825C60.6963 38.5491 62.389 39.4539 63.7176 40.7825C65.0462 42.1111 65.951 43.8038 66.3176 45.6466C66.6841 47.4895 66.496 49.3996 65.777 51.1355C65.0579 52.8714 63.8403 54.3551 62.278 55.399C60.7158 56.4428 58.879 57 57.0001 57C54.4806 57 52.0642 55.9991 50.2826 54.2175C48.501 52.4359 47.5001 50.0196 47.5001 47.5ZM89.8226 76C85.5786 68.7409 79.0468 63.0944 71.2501 59.945C73.6687 57.2026 75.2445 53.8206 75.7886 50.2048C76.3327 46.589 75.8218 42.893 74.3174 39.5604C72.813 36.2277 70.3789 33.3999 67.3072 31.4163C64.2355 29.4328 60.6566 28.3777 57.0001 28.3777C53.3436 28.3777 49.7648 29.4328 46.6931 31.4163C43.6213 33.3999 41.1872 36.2277 39.6828 39.5604C38.1784 42.893 37.6675 46.589 38.2116 50.2048C38.7557 53.8206 40.3316 57.2026 42.7501 59.945C34.9535 63.0944 28.4216 68.7409 24.1776 76C20.7953 70.2387 19.0083 63.6807 19.0001 57C19.0001 46.9218 23.0037 37.2563 30.1301 30.1299C37.2564 23.0036 46.9219 19 57.0001 19C67.0783 19 76.7438 23.0036 83.8702 30.1299C90.9966 37.2563 95.0001 46.9218 95.0001 57C94.9919 63.6807 93.2049 70.2387 89.8226 76Z" fill="white"/>
</svg>
