<svg width="49" height="49" viewBox="0 0 49 49" fill="none" xmlns="http://www.w3.org/2000/svg">
<path d="M44.3246 31.8092L35.0962 22.6012C35.2894 21.6608 35.3852 20.703 35.3821 19.7429C35.3814 17.1105 34.717 14.5207 33.4505 12.213C32.184 9.90529 30.3562 7.95408 28.136 6.53974C25.9158 5.12541 23.3749 4.29359 20.7481 4.12118C18.1213 3.94877 15.4935 4.44133 13.1075 5.55333C12.8052 5.69142 12.5412 5.90123 12.3384 6.16452C12.1356 6.42781 12.0001 6.73663 11.9437 7.06416C11.8876 7.38754 11.9102 7.71968 12.0098 8.03244C12.1093 8.3452 12.2827 8.62936 12.5154 8.86083L21.3967 17.7217L17.7217 21.3967L8.86082 12.5154C8.62739 12.2863 8.34235 12.1167 8.02968 12.0208C7.71702 11.9248 7.38589 11.9054 7.06415 11.9642C6.73867 12.0185 6.4312 12.1508 6.16808 12.35C5.90495 12.5491 5.69401 12.809 5.55332 13.1075C4.4376 15.5014 3.94547 18.1385 4.12271 20.7737C4.29994 23.4088 5.14079 25.9563 6.56703 28.1792C7.99327 30.4021 9.95856 32.2282 12.2801 33.4875C14.6016 34.7469 17.2039 35.3986 19.845 35.3821C20.805 35.3852 21.7629 35.2894 22.7033 35.0962L31.9112 44.3246C32.101 44.5159 32.3268 44.6678 32.5756 44.7715C32.8244 44.8751 33.0913 44.9285 33.3608 44.9285C33.6303 44.9285 33.8972 44.8751 34.146 44.7715C34.3948 44.6678 34.6206 44.5159 34.8104 44.3246C35.0018 44.1348 35.1537 43.909 35.2573 43.6602C35.361 43.4114 35.4143 43.1445 35.4143 42.875C35.4143 42.6055 35.361 42.3386 35.2573 42.0898C35.1537 41.841 35.0018 41.6152 34.8104 41.4254L24.8062 31.4212C24.5562 31.1729 24.2462 30.9935 23.9063 30.9005C23.5664 30.8075 23.2083 30.804 22.8667 30.8904C21.8809 31.1544 20.8655 31.2916 19.845 31.2987C18.3179 31.3122 16.8033 31.0234 15.3883 30.449C13.9734 29.8745 12.686 29.0258 11.6005 27.9516C10.515 26.8775 9.65273 25.5992 9.06339 24.1904C8.47405 22.7815 8.16929 21.27 8.16665 19.7429C8.16401 19.059 8.21864 18.376 8.32999 17.7012L16.3333 25.725C16.5231 25.9164 16.7489 26.0682 16.9977 26.1719C17.2465 26.2756 17.5134 26.3289 17.7829 26.3289C18.0524 26.3289 18.3193 26.2756 18.5681 26.1719C18.8169 26.0682 19.0427 25.9164 19.2325 25.725L25.725 19.1712C26.093 18.7905 26.2987 18.2818 26.2987 17.7523C26.2987 17.2228 26.093 16.714 25.725 16.3333L17.7829 8.33C18.4578 8.21977 19.1407 8.16514 19.8246 8.16666C22.8912 8.17207 25.8305 9.3941 27.997 11.5645C30.1636 13.7349 31.3804 16.6762 31.3804 19.7429C31.3733 20.7634 31.2361 21.7788 30.9721 22.7646C30.8856 23.1062 30.8891 23.4644 30.9821 23.8043C31.0752 24.1441 31.2546 24.4542 31.5029 24.7042L41.5071 34.7083C41.8915 35.0928 42.413 35.3088 42.9567 35.3088C43.5004 35.3088 44.0218 35.0928 44.4062 34.7083C44.7907 34.3239 45.0067 33.8024 45.0067 33.2587C45.0067 32.715 44.7907 32.1936 44.4062 31.8092H44.3246Z" fill="white"/>
</svg>
