<svg width="49" height="49" viewBox="0 0 49 49" fill="none" xmlns="http://www.w3.org/2000/svg">
<path d="M24.5002 4.08333C20.4621 4.08333 16.5148 5.28074 13.1573 7.52416C9.79978 9.76757 7.18292 12.9562 5.63763 16.6869C4.09234 20.4175 3.68802 24.5226 4.47581 28.4831C5.26359 32.4435 7.20809 36.0814 10.0634 38.9368C12.9187 41.7921 16.5566 43.7366 20.5171 44.5244C24.4775 45.3121 28.5826 44.9078 32.3133 43.3625C36.0439 41.8172 39.2326 39.2004 41.476 35.8429C43.7194 32.4854 44.9168 28.538 44.9168 24.5C44.9168 21.8188 44.3887 19.1639 43.3627 16.6869C42.3367 14.2098 40.8328 11.9591 38.9369 10.0632C37.0411 8.16737 34.7904 6.66349 32.3133 5.63745C29.8362 4.61142 27.1813 4.08333 24.5002 4.08333ZM26.5418 40.6904V38.7917C26.5418 38.2502 26.3267 37.7309 25.9438 37.348C25.561 36.9651 25.0417 36.75 24.5002 36.75C23.9587 36.75 23.4394 36.9651 23.0565 37.348C22.6736 37.7309 22.4585 38.2502 22.4585 38.7917V40.6904C18.8651 40.2347 15.5252 38.5975 12.9639 36.0363C10.4027 33.475 8.76544 30.135 8.30976 26.5417H10.2085C10.75 26.5417 11.2693 26.3266 11.6522 25.9437C12.0351 25.5608 12.2502 25.0415 12.2502 24.5C12.2502 23.9585 12.0351 23.4392 11.6522 23.0563C11.2693 22.6734 10.75 22.4583 10.2085 22.4583H8.30976C8.76544 18.865 10.4027 15.525 12.9639 12.9637C15.5252 10.4025 18.8651 8.76526 22.4585 8.30958V10.2083C22.4585 10.7498 22.6736 11.2691 23.0565 11.652C23.4394 12.0349 23.9587 12.25 24.5002 12.25C25.0417 12.25 25.561 12.0349 25.9438 11.652C26.3267 11.2691 26.5418 10.7498 26.5418 10.2083V8.30958C30.1352 8.76526 33.4752 10.4025 36.0364 12.9637C38.5977 15.525 40.2349 18.865 40.6906 22.4583H38.7918C38.2504 22.4583 37.731 22.6734 37.3482 23.0563C36.9653 23.4392 36.7502 23.9585 36.7502 24.5C36.7502 25.0415 36.9653 25.5608 37.3482 25.9437C37.731 26.3266 38.2504 26.5417 38.7918 26.5417H40.6906C40.2349 30.135 38.5977 33.475 36.0364 36.0363C33.4752 38.5975 30.1352 40.2347 26.5418 40.6904ZM30.911 15.4146L20.7027 19.7429C20.2268 19.9491 19.8472 20.3287 19.641 20.8046L15.3127 31.0129C15.1519 31.3873 15.1068 31.8012 15.1832 32.2015C15.2596 32.6017 15.454 32.9699 15.7414 33.2587C16.1184 33.6434 16.6321 33.8636 17.1706 33.8712C17.4531 33.8715 17.7321 33.8087 17.9873 33.6875L28.1956 29.3592C28.6715 29.153 29.0511 28.7734 29.2573 28.2975L33.5856 18.0892C33.7434 17.715 33.786 17.3024 33.7081 16.9039C33.6301 16.5054 33.4352 16.1392 33.148 15.8521C32.8609 15.565 32.4948 15.37 32.0963 15.2921C31.6978 15.2142 31.2851 15.2568 30.911 15.4146ZM25.8273 25.8271L21.1723 27.8687L23.2139 23.2137L27.8689 21.1721L25.8273 25.8271Z" fill="white"/>
</svg>
