<svg width="49" height="49" viewBox="0 0 49 49" fill="none" xmlns="http://www.w3.org/2000/svg">
<path d="M43.5285 19.4979L39.6698 18.2117L41.4868 14.5775C41.671 14.1971 41.7326 13.7689 41.6632 13.352C41.5937 12.9351 41.3965 12.5501 41.0989 12.25L36.7502 7.90125C36.4485 7.59926 36.0597 7.39942 35.6386 7.32984C35.2174 7.26026 34.785 7.32443 34.4023 7.51333L30.7681 9.33042L29.4818 5.47167C29.346 5.06944 29.0881 4.71957 28.7442 4.47074C28.4002 4.2219 27.9872 4.08649 27.5627 4.08334H21.4377C21.0096 4.08223 20.5921 4.21567 20.2441 4.4648C19.896 4.71393 19.6351 5.06615 19.4981 5.47167L18.2118 9.33042L14.5777 7.51333C14.1973 7.32914 13.7691 7.26753 13.3522 7.33701C12.9353 7.40649 12.5503 7.60364 12.2502 7.90125L7.90142 12.25C7.59943 12.5517 7.39959 12.9404 7.33001 13.3616C7.26043 13.7828 7.3246 14.2151 7.5135 14.5979L9.33059 18.2321L5.47184 19.5183C5.06961 19.6542 4.71974 19.912 4.47091 20.256C4.22207 20.6 4.08666 21.013 4.0835 21.4375V27.5625C4.0824 27.9905 4.21584 28.4081 4.46497 28.7561C4.7141 29.1042 5.06632 29.3651 5.47184 29.5021L9.33059 30.7883L7.5135 34.4225C7.3293 34.8029 7.26769 35.2311 7.33718 35.648C7.40666 36.0649 7.60381 36.4499 7.90142 36.75L12.2502 41.0987C12.5519 41.4007 12.9406 41.6006 13.3618 41.6702C13.7829 41.7397 14.2153 41.6756 14.5981 41.4867L18.2323 39.6696L19.5185 43.5283C19.6555 43.9338 19.9164 44.2861 20.2645 44.5352C20.6125 44.7843 21.0301 44.9178 21.4581 44.9167H27.5831C28.0111 44.9178 28.4287 44.7843 28.7767 44.5352C29.1248 44.2861 29.3857 43.9338 29.5227 43.5283L30.8089 39.6696L34.4431 41.4867C34.821 41.6662 35.245 41.7253 35.6577 41.6559C36.0703 41.5865 36.4517 41.392 36.7502 41.0987L41.0989 36.75C41.4009 36.4483 41.6007 36.0596 41.6703 35.6384C41.7399 35.2172 41.6757 34.7849 41.4868 34.4021L39.6698 30.7679L43.5285 29.4817C43.9307 29.3458 44.2806 29.088 44.5294 28.744C44.7783 28.4 44.9137 27.987 44.9168 27.5625V21.4375C44.9179 21.0095 44.7845 20.5919 44.5354 20.2439C44.2862 19.8958 43.934 19.6349 43.5285 19.4979ZM40.8335 26.0925L38.3835 26.9092C37.8201 27.0919 37.3032 27.395 36.8687 27.7975C36.4342 28.2 36.0924 28.6921 35.8671 29.2399C35.6418 29.7876 35.5383 30.3779 35.5639 30.9696C35.5894 31.5613 35.7434 32.1404 36.0152 32.6667L37.1789 34.9942L34.9331 37.24L32.6668 36.015C32.1433 35.7541 31.5698 35.6088 30.9851 35.5889C30.4005 35.569 29.8184 35.6749 29.2783 35.8994C28.7382 36.124 28.2526 36.462 27.8545 36.8905C27.4563 37.3191 27.1549 37.8282 26.9706 38.3833L26.1539 40.8333H22.9077L22.091 38.3833C21.9083 37.8199 21.6051 37.3031 21.2027 36.8685C20.8002 36.434 20.308 36.0922 19.7603 35.8669C19.2125 35.6416 18.6223 35.5381 18.0306 35.5637C17.4389 35.5893 16.8598 35.7433 16.3335 36.015L14.006 37.1787L11.7602 34.9329L12.9852 32.6667C13.2569 32.1404 13.4109 31.5613 13.4365 30.9696C13.462 30.3779 13.3586 29.7876 13.1333 29.2399C12.908 28.6921 12.5662 28.2 12.1316 27.7975C11.6971 27.395 11.1802 27.0919 10.6168 26.9092L8.16684 26.0925V22.9075L10.6168 22.0908C11.1802 21.9081 11.6971 21.605 12.1316 21.2025C12.5662 20.8 12.908 20.3079 13.1333 19.7601C13.3586 19.2124 13.462 18.6221 13.4365 18.0304C13.4109 17.4387 13.2569 16.8596 12.9852 16.3333L11.8214 14.0671L14.0673 11.8213L16.3335 12.985C16.8598 13.2567 17.4389 13.4107 18.0306 13.4363C18.6223 13.4619 19.2125 13.3584 19.7603 13.1331C20.308 12.9078 20.8002 12.566 21.2027 12.1315C21.6051 11.6969 21.9083 11.1801 22.091 10.6167L22.9077 8.16667H26.0927L26.9093 10.6167C27.0921 11.1801 27.3952 11.6969 27.7977 12.1315C28.2001 12.566 28.6923 12.9078 29.2401 13.1331C29.7878 13.3584 30.378 13.4619 30.9697 13.4363C31.5615 13.4107 32.1406 13.2567 32.6668 12.985L34.9943 11.8213L37.2402 14.0671L36.0152 16.3333C35.7543 16.8569 35.609 17.4304 35.5891 18.015C35.5691 18.5996 35.675 19.1817 35.8996 19.7219C36.1242 20.262 36.4622 20.7476 36.8907 21.1457C37.3193 21.5439 37.8283 21.8453 38.3835 22.0296L40.8335 22.8462V26.0925ZM24.5002 16.3333C22.885 16.3333 21.306 16.8123 19.963 17.7097C18.62 18.607 17.5733 19.8825 16.9552 21.3748C16.337 22.867 16.1753 24.5091 16.4904 26.0932C16.8055 27.6774 17.5833 29.1326 18.7255 30.2747C19.8676 31.4168 21.3228 32.1946 22.9069 32.5097C24.4911 32.8249 26.1332 32.6631 27.6254 32.045C29.1177 31.4269 30.3931 30.3802 31.2905 29.0372C32.1879 27.6942 32.6668 26.1152 32.6668 24.5C32.6668 22.3341 31.8064 20.2568 30.2749 18.7253C28.7433 17.1937 26.6661 16.3333 24.5002 16.3333ZM24.5002 28.5833C23.6926 28.5833 22.9031 28.3438 22.2316 27.8952C21.5601 27.4465 21.0367 26.8088 20.7277 26.0626C20.4186 25.3165 20.3377 24.4955 20.4953 23.7034C20.6528 22.9113 21.0418 22.1837 21.6128 21.6126C22.1839 21.0416 22.9115 20.6527 23.7035 20.4951C24.4956 20.3376 25.3167 20.4184 26.0628 20.7275C26.8089 21.0365 27.4467 21.5599 27.8953 22.2314C28.344 22.9029 28.5835 23.6924 28.5835 24.5C28.5835 25.583 28.1533 26.6216 27.3875 27.3874C26.6217 28.1531 25.5831 28.5833 24.5002 28.5833Z" fill="white"/>
</svg>
