<svg width="49" height="49" viewBox="0 0 49 49" fill="none" xmlns="http://www.w3.org/2000/svg">
<path d="M28.5832 18.375H20.4165C19.875 18.375 19.3557 18.5901 18.9728 18.973C18.5899 19.3559 18.3748 19.8752 18.3748 20.4167V44.9167C18.3748 45.4581 18.5899 45.9774 18.9728 46.3603C19.3557 46.7432 19.875 46.9583 20.4165 46.9583H28.5832C29.1247 46.9583 29.644 46.7432 30.0268 46.3603C30.4097 45.9774 30.6248 45.4581 30.6248 44.9167V20.4167C30.6248 19.8752 30.4097 19.3559 30.0268 18.973C29.644 18.5901 29.1247 18.375 28.5832 18.375ZM26.5415 42.875H22.4582V22.4583H26.5415V42.875ZM44.9165 2.04166H36.7498C36.2084 2.04166 35.689 2.25676 35.3062 2.63965C34.9233 3.02253 34.7082 3.54184 34.7082 4.08332V44.9167C34.7082 45.4581 34.9233 45.9774 35.3062 46.3603C35.689 46.7432 36.2084 46.9583 36.7498 46.9583H44.9165C45.458 46.9583 45.9773 46.7432 46.3602 46.3603C46.7431 45.9774 46.9582 45.4581 46.9582 44.9167V4.08332C46.9582 3.54184 46.7431 3.02253 46.3602 2.63965C45.9773 2.25676 45.458 2.04166 44.9165 2.04166ZM42.8748 42.875H38.7915V6.12499H42.8748V42.875ZM12.2498 30.625H4.08317C3.54169 30.625 3.02238 30.8401 2.63949 31.223C2.25661 31.6059 2.0415 32.1252 2.0415 32.6667V44.9167C2.0415 45.4581 2.25661 45.9774 2.63949 46.3603C3.02238 46.7432 3.54169 46.9583 4.08317 46.9583H12.2498C12.7913 46.9583 13.3106 46.7432 13.6935 46.3603C14.0764 45.9774 14.2915 45.4581 14.2915 44.9167V32.6667C14.2915 32.1252 14.0764 31.6059 13.6935 31.223C13.3106 30.8401 12.7913 30.625 12.2498 30.625ZM10.2082 42.875H6.12484V34.7083H10.2082V42.875Z" fill="white"/>
</svg>
