<svg width="49" height="49" viewBox="0 0 49 49" fill="none" xmlns="http://www.w3.org/2000/svg">
<path d="M46.9405 8.06499C46.9408 7.70437 46.8454 7.35012 46.6642 7.03833C46.483 6.72654 46.2224 6.46834 45.9089 6.29003C45.5955 6.11172 45.2404 6.01967 44.8798 6.02325C44.5192 6.02684 44.1659 6.12592 43.8561 6.31042C42.6611 7.02171 41.3745 7.56643 40.032 7.92947C38.1149 6.28436 35.6697 5.38413 33.1435 5.39333C30.3721 5.39652 27.7104 6.47662 25.7204 8.40556C23.7304 10.3345 22.568 12.9613 22.4786 15.7313C17.015 14.86 12.0633 12.0083 8.56755 7.72005C8.35693 7.46451 8.08794 7.26336 7.78327 7.13358C7.4786 7.00379 7.14719 6.94917 6.81699 6.97433C6.48697 7.00151 6.16855 7.10866 5.88924 7.28653C5.60993 7.46439 5.37816 7.70762 5.21395 7.99517C4.37182 9.46478 3.88816 11.1123 3.80224 12.8039C3.71633 14.4955 4.03058 16.1836 4.71948 17.731L4.7155 17.7349C4.40588 17.9256 4.15035 18.1926 3.97337 18.5103C3.79638 18.8279 3.70385 19.1857 3.70463 19.5493C3.70088 19.8493 3.71888 20.1492 3.75847 20.4465C3.967 23.0155 5.10553 25.4202 6.96054 27.2096C6.8347 27.4493 6.75789 27.7117 6.73461 27.9815C6.71133 28.2512 6.74204 28.5229 6.82495 28.7807C7.63369 31.3004 9.35355 33.4276 11.648 34.7462C9.31691 35.6476 6.7999 35.9619 4.31872 35.6613C3.8595 35.6037 3.39432 35.7039 2.9995 35.9454C2.60468 36.1869 2.30365 36.5554 2.14581 36.9905C1.98796 37.4256 1.98267 37.9014 2.13079 38.3399C2.27892 38.7784 2.57167 39.1535 2.96102 39.4037C7.22829 42.1521 12.1969 43.6134 17.2726 43.6127C23.0286 43.6775 28.6446 41.8381 33.2471 38.3808C37.8496 34.9235 41.1805 30.0421 42.7216 24.4959C43.4425 22.0799 43.8105 19.5724 43.8143 17.0511C43.8143 16.9175 43.8143 16.7799 43.8123 16.6424C44.8782 15.4928 45.704 14.142 46.2412 12.6691C46.7784 11.1962 47.0161 9.63094 46.9405 8.06499ZM40.1895 14.6226C39.8522 15.0215 39.6816 15.5349 39.7129 16.0562C39.7329 16.3931 39.7309 16.732 39.7309 17.0511C39.7267 19.1817 39.4144 21.3004 38.8038 23.3416C37.5451 28.0607 34.7391 32.2209 30.8353 35.1559C26.9315 38.0909 22.1556 39.6309 17.2726 39.5294C15.5186 39.5299 13.7706 39.3238 12.0648 38.9153C14.24 38.2143 16.2739 37.1336 18.0721 35.7232C18.4034 35.4624 18.6458 35.1055 18.7661 34.7015C18.8864 34.2975 18.8788 33.8661 18.7442 33.4666C18.6097 33.0671 18.3548 32.719 18.0145 32.4702C17.6743 32.2213 17.2654 32.0838 16.8439 32.0765C15.1469 32.0501 13.5264 31.366 12.3239 30.1684C12.629 30.1106 12.932 30.0388 13.2331 29.9531C13.6741 29.8276 14.0601 29.5572 14.3288 29.1857C14.5975 28.8142 14.7333 28.363 14.7145 27.9048C14.6956 27.4467 14.5231 27.0082 14.2247 26.66C13.9263 26.3118 13.5194 26.0742 13.0696 25.9854C12.0846 25.7909 11.1577 25.3718 10.3609 24.7608C9.56422 24.1497 8.91914 23.3632 8.47584 22.4623C8.84483 22.5127 9.21617 22.544 9.58839 22.556C10.0306 22.5627 10.4634 22.4286 10.8244 22.173C11.1853 21.9175 11.4556 21.5537 11.5962 21.1344C11.7309 20.7113 11.7239 20.2558 11.5764 19.837C11.4289 19.4182 11.1488 19.0589 10.7787 18.8136C9.88067 18.2154 9.14505 17.4037 8.63772 16.4513C8.13039 15.499 7.8672 14.4356 7.87171 13.3566C7.87171 13.221 7.8757 13.0854 7.88368 12.9518C12.4596 17.2194 18.3948 19.7352 24.6437 20.0558C24.9591 20.0682 25.2733 20.0088 25.5624 19.8821C25.8515 19.7553 26.108 19.5645 26.3126 19.3241C26.5151 19.0813 26.6584 18.7949 26.7314 18.4873C26.8044 18.1797 26.805 17.8594 26.7331 17.5516C26.6164 17.0644 26.5568 16.5652 26.5557 16.0642C26.5576 14.3176 27.2522 12.6431 28.4872 11.4081C29.7222 10.1731 31.3967 9.47844 33.1433 9.4766C34.0419 9.47419 34.9313 9.6581 35.7552 10.0167C36.5792 10.3753 37.3198 10.9009 37.9305 11.5601C38.1659 11.8135 38.4623 12.0024 38.7914 12.1088C39.1205 12.2153 39.4713 12.2358 39.8106 12.1683C40.6493 12.0051 41.4759 11.7853 42.2849 11.5104C41.7331 12.6394 41.028 13.6867 40.1895 14.6226Z" fill="white"/>
</svg>
