<svg width="49" height="49" viewBox="0 0 49 49" fill="none" xmlns="http://www.w3.org/2000/svg">
<path d="M23.479 40.8333H11.229C10.6875 40.8333 10.1682 40.6182 9.78533 40.2354C9.40244 39.8525 9.18734 39.3332 9.18734 38.7917V10.2083C9.18734 9.66686 9.40244 9.14755 9.78533 8.76467C10.1682 8.38178 10.6875 8.16668 11.229 8.16668H21.4373V14.2917C21.4373 15.9161 22.0826 17.474 23.2313 18.6227C24.38 19.7714 25.9379 20.4167 27.5623 20.4167H33.6873V30.625C33.6873 31.1665 33.9024 31.6858 34.2853 32.0687C34.6682 32.4516 35.1875 32.6667 35.729 32.6667C36.2705 32.6667 36.7898 32.4516 37.1727 32.0687C37.5556 31.6858 37.7707 31.1665 37.7707 30.625V18.375C37.7707 18.375 37.7707 18.375 37.7707 18.2525C37.7494 18.065 37.7083 17.8802 37.6482 17.7013V17.5175C37.55 17.3076 37.4191 17.1146 37.2603 16.9458L25.0103 4.69584C24.8415 4.53703 24.6485 4.40609 24.4386 4.30793C24.371 4.2961 24.302 4.2961 24.2344 4.30793C24.0359 4.20177 23.8225 4.12606 23.6015 4.08334H11.229C9.60455 4.08334 8.04664 4.72865 6.89798 5.87731C5.74931 7.02597 5.104 8.58389 5.104 10.2083V38.7917C5.104 40.4161 5.74931 41.974 6.89798 43.1227C8.04664 44.2714 9.60455 44.9167 11.229 44.9167H23.479C24.0205 44.9167 24.5398 44.7016 24.9227 44.3187C25.3056 43.9358 25.5207 43.4165 25.5207 42.875C25.5207 42.3335 25.3056 41.8142 24.9227 41.4313C24.5398 41.0484 24.0205 40.8333 23.479 40.8333ZM25.5207 11.0454L30.8086 16.3333H27.5623C27.0209 16.3333 26.5015 16.1182 26.1187 15.7354C25.7358 15.3525 25.5207 14.8332 25.5207 14.2917V11.0454ZM15.3123 28.5833H27.5623C28.1038 28.5833 28.6231 28.3682 29.006 27.9854C29.3889 27.6025 29.604 27.0832 29.604 26.5417C29.604 26.0002 29.3889 25.4809 29.006 25.098C28.6231 24.7151 28.1038 24.5 27.5623 24.5H15.3123C14.7709 24.5 14.2515 24.7151 13.8687 25.098C13.4858 25.4809 13.2707 26.0002 13.2707 26.5417C13.2707 27.0832 13.4858 27.6025 13.8687 27.9854C14.2515 28.3682 14.7709 28.5833 15.3123 28.5833ZM23.479 32.6667H15.3123C14.7709 32.6667 14.2515 32.8818 13.8687 33.2647C13.4858 33.6476 13.2707 34.1669 13.2707 34.7083C13.2707 35.2498 13.4858 35.7691 13.8687 36.152C14.2515 36.5349 14.7709 36.75 15.3123 36.75H23.479C24.0205 36.75 24.5398 36.5349 24.9227 36.152C25.3056 35.7691 25.5207 35.2498 25.5207 34.7083C25.5207 34.1669 25.3056 33.6476 24.9227 33.2647C24.5398 32.8818 24.0205 32.6667 23.479 32.6667ZM15.3123 20.4167H17.354C17.8955 20.4167 18.4148 20.2016 18.7977 19.8187C19.1806 19.4358 19.3957 18.9165 19.3957 18.375C19.3957 17.8335 19.1806 17.3142 18.7977 16.9313C18.4148 16.5484 17.8955 16.3333 17.354 16.3333H15.3123C14.7709 16.3333 14.2515 16.5484 13.8687 16.9313C13.4858 17.3142 13.2707 17.8335 13.2707 18.375C13.2707 18.9165 13.4858 19.4358 13.8687 19.8187C14.2515 20.2016 14.7709 20.4167 15.3123 20.4167ZM43.3036 33.2588C43.1138 33.0674 42.888 32.9155 42.6392 32.8119C42.3904 32.7082 42.1235 32.6548 41.854 32.6548C41.5845 32.6548 41.3176 32.7082 41.0688 32.8119C40.82 32.9155 40.5942 33.0674 40.4044 33.2588L33.6873 39.9963L31.0536 37.3421C30.8632 37.1517 30.6372 37.0007 30.3885 36.8977C30.1398 36.7947 29.8732 36.7417 29.604 36.7417C29.3348 36.7417 29.0682 36.7947 28.8195 36.8977C28.5708 37.0007 28.3448 37.1517 28.1544 37.3421C27.9641 37.5325 27.8131 37.7584 27.71 38.0072C27.607 38.2559 27.554 38.5225 27.554 38.7917C27.554 39.0609 27.607 39.3275 27.71 39.5762C27.8131 39.8249 27.9641 40.0509 28.1544 40.2413L32.2378 44.3246C32.4276 44.516 32.6534 44.6678 32.9022 44.7715C33.151 44.8752 33.4178 44.9285 33.6873 44.9285C33.9569 44.9285 34.2237 44.8752 34.4725 44.7715C34.7213 44.6678 34.9471 44.516 35.1369 44.3246L43.3036 36.1579C43.4949 35.9681 43.6468 35.7423 43.7505 35.4935C43.8541 35.2447 43.9075 34.9779 43.9075 34.7083C43.9075 34.4388 43.8541 34.172 43.7505 33.9232C43.6468 33.6744 43.4949 33.4486 43.3036 33.2588Z" fill="white"/>
</svg>
